/* XPM */
static char *_9828_396eaf1e66de307469c2a3381bf2ec1246d89f2981344d888b685b3e968fc481[] = {
/* columns rows colors chars-per-pixel */
"48 48 6 1 ",
"  c #322125",
". c #71693F",
"X c #DFBD00",
"o c #F5DB38",
"O c #FFFF3A",
"+ c None",
/* pixels */
"++++++++++++++++++++++++++++++++++++++++++++++++",
"++++++++++++++++++++++++++++++++++++++++++++++++",
"++++++++++++++++++++++++++++++++++++++++++++++++",
"++++++++++++++++++++++++++++++++++++++++++++++++",
"++++++++++++++++++++++++++++++++++++++++++++++++",
"++++++++++++++++++++++++++++++++++++++++++++++++",
"++++++++++++++++++++++++++++++++++++++++++++++++",
"++++++++++++++++++++++++++++++++++++++++++++++++",
"++++++++++++++++++++++++++++++++++++++++++++++++",
"++++++++++++++++++++++++++++++++++++++++++++++++",
"++++++++++++++++++++++++++++++++++++++++++++++++",
"++++++++++++++++++++++++++++++++++++++++++++++++",
"++++++++++++++++++++++++++++++++++++++++++++++++",
"++++++++++++++++++++++++++++++++++++++++++++++++",
"++++++++++++++++++++++++++++++++++++++++++++++++",
"+++++++++++++++++++++.....++++++++++++++++++++++",
"++++++++++++++++++++.ooooo..++++++++++++++++++++",
"+++++++++++++++++++.oooooooo.+++++++++++++++++++",
"+++++++++++++++++.oooooooOoooo.+++++++++++++++++",
"++++++++++++++++.oooooooOOOooXX.++++++++++++++++",
"++++++++++++++++.oooXooOOOOOXXX.++++++++++++++++",
"+++++++++++++++.oooXooOOOOOOoXXX.+++++++++++++++",
"+++++++++++++++.oooXoOOOOOOooXXX.+++++++++++++++",
"+++++++++++++++.oooXOOOOOOooooXX.+++++++++++++++",
"+++++++++++++++.ooo.OOOOOooXooXX.+++++++++++++++",
"++++++++++++++++.oO.XOOOooooooX.++++++++++++++++",
"++++++++++++++++.OOOoXOoooXoooX.++++++++++++++++",
"+++++++++++++++++.OOOOoXXXoooo.+++++++++++++++++",
"++++++++++++++++++.OOoooooooo.++++++++++++++++++",
"+++++++++++++++++++.oooooooo.+++++++++++++++++++",
"++++++++++++++++++++...ooo..++++++++++++++++++++",
"+++++++++++++++++++++++...++++++++++++++++++++++",
"++++++++++++++++++++++++++++++++++++++++++++++++",
"++++++++++++++++++++++++++++++++++++++++++++++++",
"++++++++++++++++++++++++++++++++++++++++++++++++",
"++++++++++++++++++++++++++++++++++++++++++++++++",
"++++++++++++++++++++++++++++++++++++++++++++++++",
"++++++++++++++++++++++++++++++++++++++++++++++++",
"++++++++++++++++++++++++++++++++++++++++++++++++",
"++++++++++++++++++++++++++++++++++++++++++++++++",
"++++++++++++++++++++++    ++++++++++++++++++++++",
"++++++++++++++++++++        ++++++++++++++++++++",
"++++++++++++++++++++        ++++++++++++++++++++",
"++++++++++++++++++++++    ++++++++++++++++++++++",
"++++++++++++++++++++++++++++++++++++++++++++++++",
"++++++++++++++++++++++++++++++++++++++++++++++++",
"++++++++++++++++++++++++++++++++++++++++++++++++",
"++++++++++++++++++++++++++++++++++++++++++++++++"
};
