/* XPM */
static char *_748_db1a925c77254e84f2faa4562feae28679c0713b714f98b885314daab6437cb7[] = {
/* columns rows colors chars-per-pixel */
"48 48 7 1 ",
"  c #322125",
". c #71693F",
"X c #DFBD00",
"o c #FFE900",
"O c #FFEA00",
"+ c #FFFF3A",
"@ c None",
/* pixels */
"@@@@@@@@@@@@@@@@@@@@@@@@@@@@@@@@@@@@@@@@@@@@@@@@",
"@@@@@@@@@@@@@@@@@@@@@@@@@@@@@@@@@@@@@@@@@@@@@@@@",
"@@@@@@@@@@@@@@@@@@@@@@@@@@@@@@@@@@@@@@@@@@@@@@@@",
"@@@@@@@@@@@@@@@@@@@@@@@@@@@@@@@@@@@@@@@@@@@@@@@@",
"@@@@@@@@@@@@@@@@@@@@@@@@@@@@@@@@@@@@@@@@@@@@@@@@",
"@@@@@@@@@@@@@@@@@@@@@@@@@@@@@@@@@@@@@@@@@@@@@@@@",
"@@@@@@@@@@@@@@@@@@@@@@@@@@@@@@@@@@@@@@@@@@@@@@@@",
"@@@@@@@@@@@@@@@@@@@@@@@@@@@@@@@@@@@@@@@@@@@@@@@@",
"@@@@@@@@@@@@@@@@@@@@@@@@@@@@@@@@@@@@@@@@@@@@@@@@",
"@@@@@@@@@@@@@@@@@@@@@@@@@@@@@@@@@@@@@@@@@@@@@@@@",
"@@@@@@@@@@@@@@@@@@@@@@@@@@@@@@@@@@@@@@@@@@@@@@@@",
"@@@@@@@@@@@@@@@@@@@@@@@@@@@@@@@@@@@@@@@@@@@@@@@@",
"@@@@@@@@@@@@@@@@@@@@@@@@@@@@@@@@@@@@@@@@@@@@@@@@",
"@@@@@@@@@@@@@@@@@@@@@@@@@@@@@@@@@@@@@@@@@@@@@@@@",
"@@@@@@@@@@@@@@@@@@@@@@@@@@@@@@@@@@@@@@@@@@@@@@@@",
"@@@@@@@@@@@@@@@@@@@@@@@@@@@@@@@@@@@@@@@@@@@@@@@@",
"@@@@@@@@@@@@@@@@@@@@@@...@@@@@@@@@@@@@@@@@@@@@@@",
"@@@@@@@@@@@@@@@@@@@@..ooo..@@@@@@@@@@@@@@@@@@@@@",
"@@@@@@@@@@@@@@@@@.XXXXXooOoo.@@@@@@@@@@@@@@@@@@@",
"@@@@@@@@@@@@@@@@@.XXXXXXooOoo.@@@@@@@@@@@@@@@@@@",
"@@@@@@@@@@@@@@@@.XXX.XXXXooOo.@@@@@@@@@@@@@@@@@@",
"@@@@@@@@@@@@@@@@.XX.XXXXXXooOo.@@@@@@@@@@@@@@@@@",
"@@@@@@@@@@@@@@@@.XX.XXXXXXOoX+.@@@@@@@@@@@@@@@@@",
"@@@@@@@@@@@@@@@@.XX.XXXXXXXX+++.@@@@@@@@@@@@@@@@",
"@@@@@@@@@@@@@@@@.XX.XXXXXXX++++.@@@@@@@@@@@@@@@@",
"@@@@@@@@@@@@@@@@@.XX.XXXXX+++++.@@@@@@@@@@@@@@@@",
"@@@@@@@@@@@@@@@@@.XXXXXXX+++++X.@@@@@@@@@@@@@@@@",
"@@@@@@@@@@@@@@@@@@.XXXXX+++++XX.@@@@@@@@@@@@@@@@",
"@@@@@@@@@@@@@@@@@@.XXXX..+++XX.@@@@@@@@@@@@@@@@@",
"@@@@@@@@@@@@@@@@@@@.XX+++++XXX.@@@@@@@@@@@@@@@@@",
"@@@@@@@@@@@@@@@@@@@@.+++++XX..@@@@@@@@@@@@@@@@@@",
"@@@@@@@@@@@@@@@@@@@@@..++X..@@@@@@@@@@@@@@@@@@@@",
"@@@@@@@@@@@@@@@@@@@@@@@...@@@@@@@@@@@@@@@@@@@@@@",
"@@@@@@@@@@@@@@@@@@@@@@@@@@@@@@@@@@@@@@@@@@@@@@@@",
"@@@@@@@@@@@@@@@@@@@@@@@@@@@@@@@@@@@@@@@@@@@@@@@@",
"@@@@@@@@@@@@@@@@@@@@@@@@@@@@@@@@@@@@@@@@@@@@@@@@",
"@@@@@@@@@@@@@@@@@@@@@@@@@@@@@@@@@@@@@@@@@@@@@@@@",
"@@@@@@@@@@@@@@@@@@@@@@@@@@@@@@@@@@@@@@@@@@@@@@@@",
"@@@@@@@@@@@@@@@@@@@@@@@@@@@@@@@@@@@@@@@@@@@@@@@@",
"@@@@@@@@@@@@@@@@@@@@@@@@@@@@@@@@@@@@@@@@@@@@@@@@",
"@@@@@@@@@@@@@@@@@@@@@@    @@@@@@@@@@@@@@@@@@@@@@",
"@@@@@@@@@@@@@@@@@@@          @@@@@@@@@@@@@@@@@@@",
"@@@@@@@@@@@@@@@@@@@          @@@@@@@@@@@@@@@@@@@",
"@@@@@@@@@@@@@@@@@@@@@@    @@@@@@@@@@@@@@@@@@@@@@",
"@@@@@@@@@@@@@@@@@@@@@@@@@@@@@@@@@@@@@@@@@@@@@@@@",
"@@@@@@@@@@@@@@@@@@@@@@@@@@@@@@@@@@@@@@@@@@@@@@@@",
"@@@@@@@@@@@@@@@@@@@@@@@@@@@@@@@@@@@@@@@@@@@@@@@@",
"@@@@@@@@@@@@@@@@@@@@@@@@@@@@@@@@@@@@@@@@@@@@@@@@"
};
