/* XPM */
static char *_6503_eca59fcf7c30070d5d070993fd5b2f5d8306edfad352d0fe78909fd23960d858[] = {
/* columns rows colors chars-per-pixel */
"48 48 8 1 ",
"  c #322125",
". c #71693F",
"X c #DFBD00",
"o c #DDBC1A",
"O c #DFBE1A",
"+ c #F5DB38",
"@ c #FFFF3A",
"# c None",
/* pixels */
"################################################",
"################################################",
"################################################",
"################################################",
"################################################",
"################################################",
"################################################",
"################################################",
"################################################",
"################################################",
"################################################",
"################################################",
"################################################",
"################################################",
"################################################",
"######################....######################",
"####################..++++..####################",
"##################..++++++++..##################",
"################.+++X@@@@XXX+XX.################",
"################.++X@@@@XXXXXXX.################",
"################.+X@@@@XXoXXXXX.################",
"###############.@X@@@@XXXXXXXXXX.###############",
"###############.@@@@@XXXXXXXXXXX.###############",
"###############.X@@@OXXXXXXXXXXX.###############",
"###############.@@@XXXXXXXXXXXXX.###############",
"################.@XXXXXXXXXXXXX.################",
"################.XXX.XXXXoXXXXX.################",
"#################.XXX..XXXXXXX.#################",
"#################.XXXXXXXXXXXX.#################",
"##################..XXXXXXXX..##################",
"####################..XXXX..####################",
"######################....######################",
"################################################",
"################################################",
"################################################",
"################################################",
"################################################",
"################################################",
"################################################",
"################################################",
"######################    ######################",
"####################        ####################",
"####################        ####################",
"######################    ######################",
"################################################",
"################################################",
"################################################",
"################################################"
};
