/* XPM */
static char *_9788_c829e136e0e79c1bc2e511853c1226171a66637b35d64436bce7f2ea7692920e[] = {
/* columns rows colors chars-per-pixel */
"48 48 8 1 ",
"  c #322125",
". c #71693F",
"X c #DEBD00",
"o c #DFBD00",
"O c #DFBE00",
"+ c #F5DB38",
"@ c #FFFF3A",
"# c None",
/* pixels */
"################################################",
"################################################",
"################################################",
"################################################",
"################################################",
"################################################",
"################################################",
"################################################",
"################################################",
"################################################",
"################################################",
"################################################",
"################################################",
"################################################",
"################################################",
"################################################",
"################################################",
"######################....######################",
"#####################.++++...###################",
"###################.@@@@@oooo.##################",
"###################.@@@@@ooooo.#################",
"##################.@@@@@oo..oo.#################",
"##################.@@@@oooo.oo.#################",
"##################.@@@@oooo.oo.#################",
"#################.++@@@oooo+oo.#################",
"#################.++++ooooo@oo.#################",
"#################.oo++ooooo@o.##################",
"#################.+++ooooo@@o.##################",
"#################.++++ooo.@oo.##################",
"#################.++++oo.+oo.###################",
"##################.+++ooooo.####################",
"###################.OXooooo.####################",
"####################...oo..#####################",
"#######################..#######################",
"################################################",
"################################################",
"################################################",
"################################################",
"################################################",
"################################################",
"#####################      #####################",
"###################          ###################",
"###################          ###################",
"#####################      #####################",
"################################################",
"################################################",
"################################################",
"################################################"
};
