/* XPM */
static char *_326_ac040ee3baf06c4eda138e293853b72383634d105f0b19dcbe9a30672440bf0f[] = {
/* columns rows colors chars-per-pixel */
"48 48 8 1 ",
"  c #322125",
". c #71693F",
"X c #DEBD00",
"o c #DFBD00",
"O c #DFBE00",
"+ c #F5DB38",
"@ c #FFFF3A",
"# c None",
/* pixels */
"################################################",
"################################################",
"################################################",
"################################################",
"################################################",
"################################################",
"################################################",
"################################################",
"################################################",
"################################################",
"################################################",
"################################################",
"################################################",
"################################################",
"################################################",
"################################################",
"################################################",
"######################....######################",
"####################..++++.#####################",
"##################.@@@++@@@.####################",
"##################.@@@@@@@@@.###################",
"##################.@.@@@@@@@.###################",
"##################.@.@@@@@@@.###################",
"##################.@.@@@@@@@.###################",
"##################.@.@@@+++++.##################",
"##################.@o@@@+oooo.##################",
"###################.@@@@@oooo.##################",
"###################.@@@@@oooo.##################",
"###################.@@@@@oooo.##################",
"####################.@o@@oooo.##################",
"####################.@@@@ooXo.##################",
"#####################.@@oooO.###################",
"#####################.@@o...####################",
"######################...#######################",
"################################################",
"################################################",
"################################################",
"################################################",
"################################################",
"################################################",
"#####################      #####################",
"###################          ###################",
"###################          ###################",
"#####################      #####################",
"################################################",
"################################################",
"################################################",
"################################################"
};
