/* XPM */
static char *_4940_dab291afbe556b6eb0e025950b5bcfdf54c0dc39e3ff9ceef3ecf8c26ca031b4[] = {
/* columns rows colors chars-per-pixel */
"48 48 6 1 ",
"  c #322125",
". c #71693F",
"X c #DFBD00",
"o c #F5DB38",
"O c #FFFF3A",
"+ c None",
/* pixels */
"++++++++++++++++++++++++++++++++++++++++++++++++",
"++++++++++++++++++++++++++++++++++++++++++++++++",
"++++++++++++++++++++++++++++++++++++++++++++++++",
"++++++++++++++++++++++++++++++++++++++++++++++++",
"++++++++++++++++++++++++++++++++++++++++++++++++",
"++++++++++++++++++++++++++++++++++++++++++++++++",
"++++++++++++++++++++++++++++++++++++++++++++++++",
"++++++++++++++++++++++++++++++++++++++++++++++++",
"++++++++++++++++++++++++++++++++++++++++++++++++",
"++++++++++++++++++++++++++++++++++++++++++++++++",
"++++++++++++++++++++++++++++++++++++++++++++++++",
"++++++++++++++++++++++++++++++++++++++++++++++++",
"++++++++++++++++++++++++++++++++++++++++++++++++",
"++++++++++++++++++++++++++++++++++++++++++++++++",
"++++++++++++++++++++++++++++++++++++++++++++++++",
"++++++++++++++++++++++++++++++++++++++++++++++++",
"+++++++++++++++++++++++....+++++++++++++++++++++",
"++++++++++++++++++++...oooo.++++++++++++++++++++",
"++++++++++++++++++.ooooooXXXX.++++++++++++++++++",
"+++++++++++++++++.oooooXXXXXXX.+++++++++++++++++",
"++++++++++++++++.ooooXXXXXXXXXX.++++++++++++++++",
"++++++++++++++++.oooXXXXXXX.XXXX.+++++++++++++++",
"++++++++++++++++.OooXXXXXXXX.XXX.+++++++++++++++",
"+++++++++++++++.OOOXXXXXXXXX.XXX.+++++++++++++++",
"+++++++++++++++.OOOXXXXXXXXX.XXX.+++++++++++++++",
"+++++++++++++++.OOXXXXXXXXXX.XX.++++++++++++++++",
"++++++++++++++++.OXXXXXXXXX.oXX.++++++++++++++++",
"++++++++++++++++.OXXX.XXXX.oXX.+++++++++++++++++",
"+++++++++++++++++..XXX...oXXXX.+++++++++++++++++",
"++++++++++++++++++.XXXXXXXXXX.++++++++++++++++++",
"+++++++++++++++++++.XXXXXXX..+++++++++++++++++++",
"++++++++++++++++++++..XXX..+++++++++++++++++++++",
"++++++++++++++++++++++...+++++++++++++++++++++++",
"++++++++++++++++++++++++++++++++++++++++++++++++",
"++++++++++++++++++++++++++++++++++++++++++++++++",
"++++++++++++++++++++++++++++++++++++++++++++++++",
"++++++++++++++++++++++++++++++++++++++++++++++++",
"++++++++++++++++++++++++++++++++++++++++++++++++",
"++++++++++++++++++++++++++++++++++++++++++++++++",
"++++++++++++++++++++++++++++++++++++++++++++++++",
"++++++++++++++++++++++    ++++++++++++++++++++++",
"+++++++++++++++++++          +++++++++++++++++++",
"+++++++++++++++++++          +++++++++++++++++++",
"++++++++++++++++++++++    ++++++++++++++++++++++",
"++++++++++++++++++++++++++++++++++++++++++++++++",
"++++++++++++++++++++++++++++++++++++++++++++++++",
"++++++++++++++++++++++++++++++++++++++++++++++++",
"++++++++++++++++++++++++++++++++++++++++++++++++"
};
