/* XPM */
static char *_0982_9b76b908dbe4806ff4a6d55a4139a2c5f97ffbf947d3e7433e983adc16d5f2ca[] = {
/* columns rows colors chars-per-pixel */
"48 48 6 1 ",
"  c #322125",
". c #71693F",
"X c #DFBD00",
"o c #F5DB38",
"O c #FFFF3A",
"+ c None",
/* pixels */
"++++++++++++++++++++++++++++++++++++++++++++++++",
"++++++++++++++++++++++++++++++++++++++++++++++++",
"++++++++++++++++++++++++++++++++++++++++++++++++",
"++++++++++++++++++++++++++++++++++++++++++++++++",
"++++++++++++++++++++++++++++++++++++++++++++++++",
"++++++++++++++++++++++++++++++++++++++++++++++++",
"++++++++++++++++++++++++++++++++++++++++++++++++",
"++++++++++++++++++++++++++++++++++++++++++++++++",
"++++++++++++++++++++++++++++++++++++++++++++++++",
"++++++++++++++++++++++++++++++++++++++++++++++++",
"++++++++++++++++++++++++++++++++++++++++++++++++",
"++++++++++++++++++++++++++++++++++++++++++++++++",
"++++++++++++++++++++++++++++++++++++++++++++++++",
"++++++++++++++++++++++++++++++++++++++++++++++++",
"++++++++++++++++++++++++++++++++++++++++++++++++",
"++++++++++++++++++++++++++++++++++++++++++++++++",
"++++++++++++++++++++++++++++++++++++++++++++++++",
"++++++++++++++++++++++++++++++++++++++++++++++++",
"++++++++++++++++++++++....++++++++++++++++++++++",
"+++++++++++++++++++++.oooo.+++++++++++++++++++++",
"+++++++++++++++++++++.OOOO.+++++++++++++++++++++",
"+++++++++++++++++++++.OOOO.+++++++++++++++++++++",
"+++++++++++++++++++++.OOOO.+++++++++++++++++++++",
"+++++++++++++++++++++.OOOO.+++++++++++++++++++++",
"+++++++++++++++++++++.OOOO.+++++++++++++++++++++",
"+++++++++++++++++++++.OOOO.+++++++++++++++++++++",
"+++++++++++++++++++++.OOOO.+++++++++++++++++++++",
"+++++++++++++++++++++.XXXX.+++++++++++++++++++++",
"+++++++++++++++++++++.XXXX.+++++++++++++++++++++",
"+++++++++++++++++++++.oooo.+++++++++++++++++++++",
"+++++++++++++++++++++.oooo.+++++++++++++++++++++",
"+++++++++++++++++++++.oooo.+++++++++++++++++++++",
"+++++++++++++++++++++.oooo.+++++++++++++++++++++",
"+++++++++++++++++++++.XXXX.+++++++++++++++++++++",
"++++++++++++++++++++++....++++++++++++++++++++++",
"++++++++++++++++++++++++++++++++++++++++++++++++",
"++++++++++++++++++++++++++++++++++++++++++++++++",
"++++++++++++++++++++++++++++++++++++++++++++++++",
"++++++++++++++++++++++++++++++++++++++++++++++++",
"++++++++++++++++++++++++++++++++++++++++++++++++",
"+++++++++++++++++++++      +++++++++++++++++++++",
"+++++++++++++++++++          +++++++++++++++++++",
"++++++++++++++++++            ++++++++++++++++++",
"+++++++++++++++++++++      +++++++++++++++++++++",
"++++++++++++++++++++++++++++++++++++++++++++++++",
"++++++++++++++++++++++++++++++++++++++++++++++++",
"++++++++++++++++++++++++++++++++++++++++++++++++",
"++++++++++++++++++++++++++++++++++++++++++++++++"
};
