/* XPM */
static char *_516_3c8dd5351576d3b237e124a32a6e1cf4a5bbe1ec68d24adc26ffd1dc88f6894a[] = {
/* columns rows colors chars-per-pixel */
"48 48 8 1 ",
"  c #322125",
". c #71693F",
"X c #CAAC00",
"o c #DFBD00",
"O c #DFBE00",
"+ c #F5DB38",
"@ c #FFFF3A",
"# c None",
/* pixels */
"################################################",
"################################################",
"################################################",
"################################################",
"################################################",
"################################################",
"################################################",
"################################################",
"################################################",
"################################################",
"################################################",
"################################################",
"################################################",
"################################################",
"################################################",
"################################################",
"################################################",
"################################################",
"######################....######################",
"#####################.++++X.####################",
"####################.@@@@@X.####################",
"####################.@@@@@..####################",
"####################.@@@@@..####################",
"####################.@@@@@..####################",
"####################.@@@@o..####################",
"####################.@@@@o+.####################",
"####################.@@@@o@.####################",
"####################.o@@@o@.####################",
"####################.ooooo@.####################",
"####################.++++oo.####################",
"####################.++++oo.####################",
"####################.++++oo.####################",
"####################.++++o.#####################",
"#####################..oOo.#####################",
"#######################...######################",
"################################################",
"################################################",
"################################################",
"################################################",
"################################################",
"#####################      #####################",
"###################          ###################",
"##################            ##################",
"#####################      #####################",
"################################################",
"################################################",
"################################################",
"################################################"
};
