/* XPM */
static char *_3395_49729d7dd3a0dc74f04089d446d9187267384393b0cc81033e3fc13b5ab9c1f0[] = {
/* columns rows colors chars-per-pixel */
"48 48 5 1 ",
"  c black",
". c #FF7F27",
"X c #FFC90E",
"o c white",
"O c None",
/* pixels */
"OOOOOOOOOOOOOOOOOOOOOOOOOOOOOOOOOOOOOOOOOOOOOOOO",
"OOOOOOOOOOOOOOOOOOOOOOOOOOOOOOOOOOOOOOOOOOOOOOOO",
"OOOOOOOOOOOOOOOOOOOOOOOOOOOOOOOOOOOOOOOOOOOOOOOO",
"OOOOOOOOOOOOOOOOOOOOOOOOOOOOOOOOOOOOOOOOOOOOOOOO",
"OOOOOOOOOOOOOOOOOOOOOOOOOOOOOOOOOOOOOOOOOOOOOOOO",
"OOOOOOOOOOOOOOOOOOOOOOOOOOOOOOOOOOOOOOOOOOOOOOOO",
"OOOOOOOOOOOOOOOOOOOOOOOOOOOOOOOOOOOOOOOOOOOOOOOO",
"OOOOOOOOOOOOOOOOOOO          OOOOOOOOOOOOOOOOOOO",
"OOOOOOOOOOOOOOOOO  XXXXXXXXoo  OOOOOOOOOOOOOOOOO",
"OOOOOOOOOOOOOOOO XXXXXXXXXXXooo OOOOOOOOOOOOOOOO",
"OOOOOOOOOOOOOOO XXXXXXXXXXXXXXoo OOOOOOOOOOOOOOO",
"OOOOOOOOOOOOOO XXXXXXXXXXXXXXXXXo OOOOOOOOOOOOOO",
"OOOOOOOOOOOOOO XXXXXXXXXXXXXXXXXX OOOOOOOOOOOOOO",
"OOOOOOOOOOOOOO ..Xo oXXXXXX ooX.. OOOOOOOOOOOOOO",
"OOOOOOOOOOOOOO X.Xo  XXXXXX  oX.X OOOOOOOOOOOOOO",
"OOOOOOOOOOOOOO .XXo  XX..XX  oXXX OOOOOOOOOOOOOO",
"OOOOOOOOOOOOOO .XXXXXX.. XXXXXXXX OOOOOOOOOOOOOO",
"OOOOOOOOOOOOOO ..XXXXXXXXXXXXXXXX OOOOOOOOOOOOOO",
"OOOOOOOOOOOOOOO ..XXXX    XXXXXX OOOOOOOOOOOOOOO",
"OOOOOOOOOOOOOOOO   ...XXXXXXX   OOOOOOOOOOOOOOOO",
"OOOOOOOOOOOOOOOOOOO   .XXX   OOOOOOOOOOOOOOOOOOO",
"OOOOOOOOOOOOOOOOOOOOOO .X OOOOOOOOOOOOOOOOOOOOOO",
"OOOOOOOOOOOOOOOOOOO   .XXX   OOOOOOOOOOOOOOOOOOO",
"OOOOOOOOOOOOOOOOO X.XXXXXXXX.X OOOOOOOOOOOOOOOOO",
"OOOOOOOOOOOOOOOO X..XXXXXXXX..X OOOOOOOOOOOOOOOO",
"OOOOOOOOOOOOOOOO X XXXXXXXXXX X OOOOOOOOOOOOOOOO",
"OOOOOOOOOOOOOOO XX XXXXXXXXXX XX OOOOOOOOOOOOOOO",
"OOOOOOOOOOOOOOO X. XXXXXXXXXX .X OOOOOOOOOOOOOOO",
"OOOOOOOOOOOOOOO X. XXXXXXXXXX .X OOOOOOOOOOOOOOO",
"OOOOOOOOOOOOOO XX. XXXXXXXXXX .XX OOOOOOOOOOOOOO",
"OOOOOOOOOOOOOO X.. XXXX. XXXX ..X OOOOOOOOOOOOOO",
"OOOOOOOOOOOOOO X. XXXXXXXXXXXX .X OOOOOOOOOOOOOO",
"OOOOOOOOOOOOO XX. XXXXXXXXXXXX .XX OOOOOOOOOOOOO",
"OOOOOOOOOOOOO X.. XXXX.  .XXXX ..X OOOOOOOOOOOOO",
"OOOOOOOOOOOOO     XXXX OO XXXX     OOOOOOOOOOOOO",
"OOOOOOOOOOOOOOOOO XXX. OO .XXX OOOOOOOOOOOOOOOOO",
"OOOOOOOOOOOOOOOOO XXX. OO .XXX OOOOOOOOOOOOOOOOO",
"OOOOOOOOOOOOOOOOO XXX OOOO XXX OOOOOOOOOOOOOOOOO",
"OOOOOOOOOOOOOOOOO XXX OOOO XXX OOOOOOOOOOOOOOOOO",
"OOOOOOOOOOOOOOOOO .XX OOOO .XX OOOOOOOOOOOOOOOOO",
"OOOOOOOOOOOOOOOOO .XX OOOO .XX OOOOOOOOOOOOOOOOO",
"OOOOOOOOOOOOOOOOO ..X OOOO ..X OOOOOOOOOOOOOOOOO",
"OOOOOOOOOOOOOOOOO ... OOOO ... OOOOOOOOOOOOOOOOO",
"OOOOOOOOOOOOOOOOO     OOOO     OOOOOOOOOOOOOOOOO",
"OOOOOOOOOOOOOOOOOOOOOOOOOOOOOOOOOOOOOOOOOOOOOOOO",
"OOOOOOOOOOOOOOOOOOOOOOOOOOOOOOOOOOOOOOOOOOOOOOOO",
"OOOOOOOOOOOOOOOOOOOOOOOOOOOOOOOOOOOOOOOOOOOOOOOO",
"OOOOOOOOOOOOOOOOOOOOOOOOOOOOOOOOOOOOOOOOOOOOOOOO"
};
