/* XPM */
static char *_8558_2afd4e2f5fcf1855829449f8aeadea95e1e6f8518311f91753b1dc20a4d2bc4f[] = {
/* columns rows colors chars-per-pixel */
"48 48 4 1 ",
"  c #323353",
". c #3D3F65",
"X c #DDE0F0",
"o c None",
/* pixels */
"oooooooooooooooooooooooooooooooooooooooooooooooo",
"oooooooooooooooooooooooooooooooooooooooooooooooo",
"oooooooooooooooooooooooooooooooooooooooooooooooo",
"oooooooooooooooooooooooooooooooooooooooooooooooo",
"oooooooooooooooooooooooooooooooooooooooooooooooo",
"oooooooooooooooooooooooooooooooooooooooooooooooo",
"oooooooooooooooooooooooooooooooooooooooooooooooo",
"oooooooooooooooooooooooooooooooooooooooooooooooo",
"ooooooooooo       oooooooooooo       ooooooooooo",
"ooooooooooo       oooooooooooo       ooooooooooo",
"oooooooooo    .....oooooooooo     ....oooooooooo",
"oooooooo     .ooooooooooooo     ..oooooooooooooo",
"oooooooo     .ooooooooooooo     ..oooooooooooooo",
"oooooooo     ...ooooooooooo     ...ooooooooooooo",
"oooooooooo .. ooooooooooooooo ..  oooooooooooooo",
"oooooooooo .. ooooooooooooooo ..  oooooooooooooo",
"ooooooooooo...ooooooooooooooo   ...ooooooooooooo",
"ooooooooooo...ooooooooooooooo   ...ooooooooooooo",
"ooooooooooooo...oooooooooo   ooooooooooooooooooo",
"oooooooooooooooooo        oooooooooooooooooooooo",
"oooooooooooooooooo        oooooooooooooooooooooo",
"oooooooooooooooo        ..   ooooooooooooooooooo",
"oooooooooooooo               .oooooooooooooooooo",
"oooooooooooooo               .oooooooooooooooooo",
"ooooooooooooo   XXXXXX    .   oooooooooooooooooo",
"ooooooooooooo   XXXXXX    .   oooooooooooooooooo",
"ooooooooooooo   XX   X          oooooooooooooooo",
"ooooooooooooo   XX   X       .  oooooooooooooooo",
"ooooooooooooo   XX   X       .  oooooooooooooooo",
"ooooooooooooo     XXXX            oooooooooooooo",
"oooooooooooooo             ..     oooooooooooooo",
"oooooooooooooo             ..     oooooooooooooo",
"oooooooooooooooo        ooooo ..  oooooooooooooo",
"oooooooooooooooo        ooooo ..  oooooooooooooo",
"oooooooooooooooooooooooooooooo    oooooooooooooo",
"ooooooooooooooooooooooooooooo   oooooooooooooooo",
"ooooooooooooooooooooooooooooo   oooooooooooooooo",
"ooooooooooooooooooooooooooo  ooooooooooooooooooo",
"ooooooooooooooooooooooooooo  o  oooooooooooooooo",
"ooooooooooooooooooooooooooo  o  oooooooooooooooo",
"ooooooooooooooooooooooooooooo oooooooooooooooooo",
"ooooooooooooooooooooooooooooo oooooooooooooooooo",
"oooooooooooooooooooooooooooooooooooooooooooooooo",
"oooooooooooooooooooooooooooooooooooooooooooooooo",
"oooooooooooooooooooooooooooooooooooooooooooooooo",
"oooooooooooooooooooooooooooooooooooooooooooooooo",
"oooooooooooooooooooooooooooooooooooooooooooooooo",
"oooooooooooooooooooooooooooooooooooooooooooooooo"
};
