/* XPM */
static char *_2699_320728335ae1e3c626ff6c84c2b1ee050c8dfd86ab5b257cc7379feb3b6e3504[] = {
/* columns rows colors chars-per-pixel */
"48 48 4 1 ",
"  c #323353",
". c #3D3F65",
"X c #DDE0F0",
"o c None",
/* pixels */
"oooooooooooooooooooooooooooooooooooooooooooooooo",
"oooooooooooooooooooooooooooooooooooooooooooooooo",
"oooooooooooooooooooooooooooooooooooooooooooooooo",
"oooooooooooooooooooooooooooooooooooooooooooooooo",
"oooooooooooooooooooooooooooooooooooooooooooooooo",
"oooooooooooooooooooooooooooooooooooooooooooooooo",
"oooooooooooooooooooooooooooooooooooooooooooooooo",
"oooooooooooooooooooooooooooooooooooooooooooooooo",
"oooooooooo   ooooooooooooooooooo     ooooooooooo",
"oooooooooo   ooooooooooooooooooo     ooooooooooo",
"oooooooo     ...oooooooooooooo.....   oooooooooo",
"oooooo     ..o....ooooooooo   oooo...   oooooooo",
"oooooo     ..o....ooooooooo   oooo...   oooooooo",
"oooooo    .oooooooo        oooooooo..   oooooooo",
"oooooo    .ooooooo        .   ooooo..   oooooooo",
"oooooo    .ooooooo        .   ooooo..   oooooooo",
"oooooo    ...ooo              ..oo...   oooooooo",
"oooooo    ...ooo              ..oo...   oooooooo",
"oooooo    .ooo    XXXXXX   ..   ooo..   oooooooo",
"oooooooo  .ooo    X   XX          o.. oooooooooo",
"oooooooo  .ooo    X   XX          o.. oooooooooo",
"oooooooooo ..o    X   XX      ..  ...ooooooooooo",
"oooooooooooooo     XXXXX           ooooooooooooo",
"oooooooooooooo     XXXXX           ooooooooooooo",
"oooooooooooooooo             .    .ooooooooooooo",
"oooooooooooooooo             .    .ooooooooooooo",
"oooooooooooooooooo        ooo      ooooooooooooo",
"oooooooooooooooooooooooooooooo     ooooooooooooo",
"oooooooooooooooooooooooooooooo     ooooooooooooo",
"oooooooooooooooooooooooooooooo  .. ooooooooooooo",
"oooooooooooooooooooooooooooooooo   ooooooooooooo",
"oooooooooooooooooooooooooooooooo   ooooooooooooo",
"oooooooooooooooooooooooooooooo     ooooooooooooo",
"oooooooooooooooooooooooooooooo     ooooooooooooo",
"ooooooooooooooooooooooooooooo     oooooooooooooo",
"ooooooooooooooooooooooooooooo oooooooooooooooooo",
"ooooooooooooooooooooooooooooo oooooooooooooooooo",
"ooooooooooooooooooooooooooooo oooooooooooooooooo",
"oooooooooooooooooooooooooooooo    oooooooooooooo",
"oooooooooooooooooooooooooooooo    oooooooooooooo",
"oooooooooooooooooooooooooooooooooooooooooooooooo",
"oooooooooooooooooooooooooooooooooooooooooooooooo",
"oooooooooooooooooooooooooooooooooooooooooooooooo",
"oooooooooooooooooooooooooooooooooooooooooooooooo",
"oooooooooooooooooooooooooooooooooooooooooooooooo",
"oooooooooooooooooooooooooooooooooooooooooooooooo",
"oooooooooooooooooooooooooooooooooooooooooooooooo",
"oooooooooooooooooooooooooooooooooooooooooooooooo"
};
