/* XPM */
static char *_755_288aff648b860dd99b4a04dd41164119f1b4be8a9da280077be8cb8b9b5ec9e7[] = {
/* columns rows colors chars-per-pixel */
"48 48 4 1 ",
"  c #323353",
". c #3D3F65",
"X c #DDE0F0",
"o c None",
/* pixels */
"oooooooooooooooooooooooooooooooooooooooooooooooo",
"oooooooooooooooooooooooooooooooooooooooooooooooo",
"oooooooooooooooooooooooooooooooooooooooooooooooo",
"oooooooooooooooooooooooooooooooooooooooooooooooo",
"oooooooooooooooooooooooooooooooooooooooooooooooo",
"oooooooooooooooooooooooooooooooooooooooooooooooo",
"oooooooooooooooooooooooooooooooooooooooooooooooo",
"oooooooooooooooooooooooooooooooooooooooooooooooo",
"oooooooooooooooooooooooooooooooooooooooooooooooo",
"oooooooooooooooooooooooooooooooooooooooooooooooo",
"oooooooooooooooooooooooooooooooooooooooooooooooo",
"oooooooooo   .  oooooooooooooo..     ooooooooooo",
"oooooooooo   .  oooooooooooooo..     ooooooooooo",
"oooooooo   ..o....o           oo..    oooooooooo",
"oooooo     ..ooooo        .   oooo.     oooooooo",
"oooooo     ..ooooo        .   oooo.     oooooooo",
"oooooo    .ooooo              ..ooo..   oooooooo",
"oooooo    .ooooo              ..ooo..   oooooooo",
"oooooo    .ooo    XXXXXX   ..   ooo..   oooooooo",
"oooooo    .ooo    X   XX          o..   oooooooo",
"oooooo    .ooo    X   XX          o..   oooooooo",
"oooooo    .ooo    X   XX      ..  o..   oooooooo",
"oooooooo  .ooo     XXXXX           .. oooooooooo",
"oooooooo  .ooo     XXXXX           .. oooooooooo",
"oooooooooo ..ooo             .    ...ooooooooooo",
"oooooooooo ..ooo             .    ...ooooooooooo",
"oooooooooooooooooo        oooo     ooooooooooooo",
"oooooooooooooooooooooooooooooo  .. ooooooooooooo",
"oooooooooooooooooooooooooooooo  .. ooooooooooooo",
"oooooooooooooooooooooooooooooooo   ooooooooooooo",
"oooooooooooooooooooooooooooooo    oooooooooooooo",
"oooooooooooooooooooooooooooooo    oooooooooooooo",
"ooooooooooooooooooooooooooooo oooooooooooooooooo",
"ooooooooooooooooooooooooooooo oooooooooooooooooo",
"ooooooooooooooooooooooooooooo oo  oooooooooooooo",
"oooooooooooooooooooooooooooooo  oooooooooooooooo",
"oooooooooooooooooooooooooooooo  oooooooooooooooo",
"oooooooooooooooooooooooooooooooooooooooooooooooo",
"oooooooooooooooooooooooooooooooooooooooooooooooo",
"oooooooooooooooooooooooooooooooooooooooooooooooo",
"oooooooooooooooooooooooooooooooooooooooooooooooo",
"oooooooooooooooooooooooooooooooooooooooooooooooo",
"oooooooooooooooooooooooooooooooooooooooooooooooo",
"oooooooooooooooooooooooooooooooooooooooooooooooo",
"oooooooooooooooooooooooooooooooooooooooooooooooo",
"oooooooooooooooooooooooooooooooooooooooooooooooo",
"oooooooooooooooooooooooooooooooooooooooooooooooo",
"oooooooooooooooooooooooooooooooooooooooooooooooo"
};
