/* XPM */
static char *_95_c0672589e453cad4295267b078c0984082985828cc3b23b4dba2fbd6ed4314ac[] = {
/* columns rows colors chars-per-pixel */
"48 48 4 1 ",
"  c #323353",
". c #3D3F65",
"X c #DDE0F0",
"o c None",
/* pixels */
"oooooooooooooooooooooooooooooooooooooooooooooooo",
"oooooooooooooooooooooooooooooooooooooooooooooooo",
"oooooooooooooooooooooooooooooooooooooooooooooooo",
"oooooooooooooooooooooooooooooooooooooooooooooooo",
"oooooooooooooooooooooooooooooooooooooooooooooooo",
"oooooooooooooooooooooooooooooooooooooooooooooooo",
"oooooooooooooooooooooooooooooooooooooooooooooooo",
"oooooooooooooooooooooooooooooooooooooooooooooooo",
"ooooooooooo       oooooooooooo       ooooooooooo",
"ooooooooooo       oooooooooooo       ooooooooooo",
"oooooooooo    .....oooooooooo     ....oooooooooo",
"oooooooo     .ooooooooooooo     ..oooooooooooooo",
"oooooooo     .ooooooooooooo     ..oooooooooooooo",
"oooooooo     ...ooooooooooo     ...ooooooooooooo",
"oooooooooo .. ooooooooooooooo ..  oooooooooooooo",
"oooooooooo .. ooooooooooooooo ..  oooooooooooooo",
"ooooooooooooo...oooooooooo   o  ...ooooooooooooo",
"ooooooooooooo...oooooooooo   o  ...ooooooooooooo",
"oooooooooooooooooo        oooooooooooooooooooooo",
"oooooooooooooooo        ..   ooooooooooooooooooo",
"oooooooooooooooo        ..   ooooooooooooooooooo",
"oooooooooooooo               .oooooooooooooooooo",
"ooooooooooooo   XXXXXX    .   oooooooooooooooooo",
"ooooooooooooo   XXXXXX    .   oooooooooooooooooo",
"ooooooooooooo   XX   X          oooooooooooooooo",
"ooooooooooooo   XX   X          oooooooooooooooo",
"ooooooooooooo   XX   X       .  oooooooooooooooo",
"ooooooooooooo     XXXX            oooooooooooooo",
"ooooooooooooo     XXXX            oooooooooooooo",
"oooooooooooooo             ..   ..oooooooooooooo",
"oooooooooooooooo        ooooo     oooooooooooooo",
"oooooooooooooooo        ooooo     oooooooooooooo",
"ooooooooooooooooooooooooooooo ..  oooooooooooooo",
"ooooooooooooooooooooooooooooo ..  oooooooooooooo",
"oooooooooooooooooooooooooooooo    oooooooooooooo",
"ooooooooooooooooooooooooooooo   oooooooooooooooo",
"ooooooooooooooooooooooooooooo   oooooooooooooooo",
"ooooooooooooooooooooooooooo  ooooooooooooooooooo",
"ooooooooooooooooooooooooooo  o  oooooooooooooooo",
"ooooooooooooooooooooooooooo  o  oooooooooooooooo",
"ooooooooooooooooooooooooooooo oooooooooooooooooo",
"ooooooooooooooooooooooooooooo oooooooooooooooooo",
"oooooooooooooooooooooooooooooooooooooooooooooooo",
"oooooooooooooooooooooooooooooooooooooooooooooooo",
"oooooooooooooooooooooooooooooooooooooooooooooooo",
"oooooooooooooooooooooooooooooooooooooooooooooooo",
"oooooooooooooooooooooooooooooooooooooooooooooooo",
"oooooooooooooooooooooooooooooooooooooooooooooooo"
};
