/* XPM */
static char *_2767_40423d3667d5eb1c94eb86c99d918dd5600a06f7368e649b7ab6f3884aea52e3[] = {
/* columns rows colors chars-per-pixel */
"48 48 212 2 ",
"   c #190806",
".  c #2C0A01",
"X  c #2A0805",
"o  c #360802",
"O  c #3D170E",
"+  c #3D180F",
"@  c #361108",
"#  c #211112",
"$  c #3D1911",
"%  c #351916",
"&  c #1E2422",
"*  c #1D2F31",
"=  c #252A2A",
"-  c #293639",
";  c #3B3635",
":  c #3A3935",
">  c #33363B",
",  c #363C3B",
"<  c #3A3D3B",
"1  c #333935",
"2  c #392C33",
"3  c #470400",
"4  c #490500",
"5  c #490A01",
"6  c #450A01",
"7  c #520400",
"8  c #5D0000",
"9  c #550D04",
"0  c #590F09",
"q  c #580F06",
"w  c #561006",
"e  c #5A1007",
"r  c #57120A",
"t  c #5A1108",
"y  c #401811",
"u  c #6C0E04",
"i  c #780C03",
"p  c #6D120A",
"a  c #691007",
"s  c #73130B",
"d  c #79140D",
"f  c #70190F",
"g  c #7B1E13",
"h  c #6D1811",
"j  c #7D2216",
"k  c #7E211C",
"l  c #42302E",
"z  c #433333",
"x  c #413A39",
"c  c #403B37",
"v  c #543E3A",
"b  c #503B36",
"n  c #37403B",
"m  c #3C423E",
"M  c #55403B",
"N  c #363E42",
"B  c #243C46",
"V  c #423D41",
"C  c #2E4042",
"Z  c #3D4543",
"A  c #3E4840",
"S  c #3E454D",
"D  c #204651",
"F  c #3E5054",
"G  c #414541",
"H  c #474649",
"J  c #465254",
"K  c #515457",
"L  c #615F67",
"P  c #5C656B",
"I  c #5A696E",
"U  c #5C6A73",
"Y  c #5B6E7B",
"T  c #596974",
"R  c #5C737D",
"E  c #646267",
"W  c #63656B",
"Q  c #64696C",
"!  c #68696E",
"~  c #636B74",
"^  c #6C6D74",
"/  c #6A6E7B",
"(  c #666C78",
")  c #716E75",
"_  c #6C7174",
"`  c #65747D",
"'  c #6C727C",
"]  c #66797E",
"[  c #6C797D",
"{  c #727176",
"}  c #74757A",
"|  c #747B7D",
" . c #981E0F",
".. c #841E19",
"X. c #8F2417",
"o. c #84231C",
"O. c #8B241D",
"+. c #902317",
"@. c #932419",
"#. c #93291C",
"$. c #9B2719",
"%. c #AD2314",
"&. c #AD251B",
"*. c #A52A1E",
"=. c #AA291D",
"-. c #B42213",
";. c #B3271C",
":. c #B3291B",
">. c #BA2617",
",. c #8E2923",
"<. c #8B2622",
"1. c #932724",
"2. c #9E2D23",
"3. c #992927",
"4. c #AD2722",
"5. c #A52C23",
"6. c #AA2C25",
"7. c #AD2E2A",
"8. c #A62F2B",
"9. c #B22C25",
"0. c #BB2A23",
"q. c #B12E2B",
"w. c #A43025",
"e. c #AB3027",
"r. c #A5322B",
"t. c #AC322B",
"y. c #AD392E",
"u. c #B3322C",
"i. c #B8322E",
"p. c #B4392D",
"a. c #AC3433",
"s. c #A93937",
"d. c #B33633",
"f. c #BB3432",
"g. c #B43934",
"h. c #BB3A34",
"j. c #B43A3A",
"k. c #BC3C3A",
"l. c #B23739",
"z. c #C02C22",
"x. c #C23634",
"c. c #C33A35",
"v. c #C43B39",
"b. c #CB3C3A",
"n. c #567683",
"m. c #6C7B83",
"M. c #6C7E8C",
"N. c #657785",
"B. c #7B7D82",
"V. c #777C80",
"C. c #6D828A",
"Z. c #6F8185",
"A. c #7C8184",
"S. c #72848B",
"D. c #7F858B",
"F. c #6C8796",
"G. c #738792",
"H. c #748993",
"J. c #7C8A92",
"K. c #738C9C",
"L. c #7C8F9E",
"P. c #7A919C",
"I. c #7A91A0",
"U. c #82868F",
"Y. c #848E8C",
"T. c #898C8C",
"R. c #85918C",
"E. c #858E92",
"W. c #8A8D93",
"Q. c #878D98",
"!. c #8B8F98",
"~. c #839292",
"^. c #8B9295",
"/. c #8D939A",
"(. c #8E999B",
"). c #869099",
"_. c #91969C",
"`. c #959B9D",
"'. c #989C9E",
"]. c #919392",
"[. c #A19597",
"{. c #8E9DA3",
"}. c #8695A4",
"|. c #949BA3",
" X c #999AA3",
".X c #9397A0",
"XX c #C5AFB2",
"oX c #CAB7BD",
"OX c #BFC9CB",
"+X c #C5C5CB",
"@X c #C2C9CF",
"#X c #D8C6CB",
"$X c #C2C9D3",
"%X c #DDCBD3",
"&X c #EAD8DC",
"*X c #ECDCE3",
"=X c #F3DDE9",
"-X c #F4DDE4",
";X c #DCEFEB",
":X c #DFF2EE",
">X c #DEF2F1",
",X c #F8E5EA",
"<X c #E6EEF4",
"1X c #EAEEF3",
"2X c #E7EEF9",
"3X c #ECEEFC",
"4X c #E6F1F4",
"5X c #E9F1F6",
"6X c #E5F3FE",
"7X c #E9F2FB",
"8X c #E5F0ED",
"9X c None",
/* pixels */
"9X9X9X9X9X9X9X9X9X9X9X9X9X9X9X9X9X9X9X9X9X9X9X9X9X9X9X9X9X9X9X9X9X9X9X9X9X9X9X9X9X9X9X9X9X9X9X9X",
"9X9X9X9X9X9X9X9X9X9X9X9X9X9X9X9X9X9X9X9X9X9X9X9X9X9X9X9X9X9X9X9X9X9X9X9X9X9X9X9X9X9X9X9X9X9X9X9X",
"9X9X9X9X9X9XA.`.'.(.'.`.|.'. X X X X X X'.`.|. X'.`.'.'.'.'.`.'.'.`.'. X`.`.'.U.9X9X9X9X9X9X9X9X",
"9X9X9X9X9X9X/.$X@X$X$X$X$X$X$XOX$XOX$X$X$X$X$X$X$X$X$X$X$X$X$X$X$X$X$X$X@X+X+X`.9X9X9X9X9X9X9X9X",
"9X9X9X9X9X9X$X5X5X7X5X<X7X7X6X6X2X6X6X6X7X7X7X7X7X7X6X7X2X7X7X7X6X7X7X6X7X7X<X`.9X9X9X9X9X9X9X9X",
"9X9X9X9X9X9X5X'. X_.'.'.|.|.|.|.{.{.|. X{.{.|.{.{.{.|.|.|.{.|.{.|.|.|.{._. X|.Z 9X9X9X9X9X9X9X9X",
"9X9X9X9X9X9X7X'.'.V H H M M M v V M M M v v v v v v v v v v V v M M M b @X'.'.J 9X9X9X9X9X9X9X9X",
"9X9X9X9X9X9X5X'._.x   # % % $ y y y y y y y $ $ $ y + y y y y y + O @ . 4X{.{.A 9X9X9X9X9X9X9X9X",
"9X9X9X9X9X9X5X|.{.< X 6 h j j j j j g k ..o.o.o.o.O.O.O.O.<.1.1.3.1.0 o 3X|.(.m 9X9X9X9X9X9X9X9X",
"9X9X9X9X9X9X3X|.{.< X 6 j o.o.O.o.<.<.<.O.,.,.,.,.1.1.1.2.2.3.3.3.3.0 o 7X|.{.A 9X9X9X9X9X9X9X9X",
"9X9X9X9X9X9X5X X`.c X r #.2.r.e.r.w.7.a.t.a.a.a.l.l.l.d.h.k.k.k.k.l.s 4 7X X`.Z 9X9X9X9X9X9X9X9X",
"9X9X9X9X9X9X1X|.`.< . r X.5.5.5.5.5.6.7.5.6.8.7.7.q.q.7.7.q.q.q.i.d.s 4 7X X`.M 9X9X9X9X9X9X9X9X",
"9X9X9X9X9X9X5X'.`.< . e @.5.*.=.6.6.7.9.7.7.7.t.u.u.u.u.f.f.i.f.f.d.d 7 7X X'.G 9X9X9X9X9X9X9X9X",
"9X9X9X9X9X9X4X|.(.c . w @.$.*.*.*.*.6.4.4.6.7.7.7.u.u.u.u.u.p.f.f.l.s 4 7X X'.G 9X9X9X9X9X9X9X9X",
"9X9X9X9X9X9X4X|.(.< . w X.2.*.*.*.*.5.5.6.5.5.5.6.6.6.6.6.6.6.t.q.r.a 3 5X X`.m 9X9X9X9X9X9X9X9X",
"9X9X9X9X9X9X<X|.(.: . e X.2.*.*.*.$.5.6.6.5.2.5.6.6.6.7.e.e.e.q.7.e.a 3 <X|.`.A 9X9X9X9X9X9X9X9X",
"9X9X9X9X9X9X1X|..Xx . 0 @.2.5.*.*.*.5.5.6.6.5.8.6.8.6.6.4.7.6.q.q.a.s 4 2X X`.A 9X9X9X9X9X9X9X9X",
"9X9X9X9X9X9X3X|._.x . 0 +.5.5.5.5.5.6.4.7.6.8.7.q.7.u.u.d.u.d.f.f.a.s 4 4X|.`.A 9X9X9X9X9X9X9X9X",
"9X9X9X9X9X9X5X|./.; . e +.*.*.=.*.5.5.6.6.6.5.5.7.7.7.t.7.t.u.u.f.a.u 4 5X.X_.m 9X9X9X9X9X9X9X9X",
"9X9X9X9X9X9X4X|./.; . r X.5.w.=.5.6.8.7.7.e.t.e.7.u.u.u.i.h.h.v.v.j.d 4 1X.X_.m 9X9X9X9X9X9X9X9X",
"9X9X9X9X9X9X4X(.^.: . w X.2.*.*.*.*.8.4.6.5.5.5.6.6.6.7.6.7.7.9.q.6.u 3 1X.X/.m 9X9X9X9X9X9X9X9X",
"9X9X9X9X9X9X1X X(.1 . 9 @.w.w.=.6.6.6.6.q.7.u.p.u.f.f.f.x.c.c.c.b.k.d 7 7X`.^.C 9X9X9X9X9X9X9X9X",
"9X9X9X9X9X9X<X X^.: . w @.2.*.=.*.*.5.6.6.2.2.5.6.6.e.e.t.e.e.e.u.a.p 6 5X/.^.M 9X9X9X9X9X9X9X9X",
"9X9X9X9X9X9X8X|.^.: . e @.w.$.=.*.*.5.6.4.6.8.6.7.7.7.q.u.u.9.q.q.t.u 3 5X.X_.< 9X9X9X9X9X9X9X9X",
"9X9X9X9X9X9X1X X^.: . w 2.y.y.p.p.d.g.k.x.h.h.h.x.x.v.v.v.v.b.c.b.v.d 7 2X_.].Z 9X9X9X9X9X9X9X9X",
"9X9X9X9X9X9X<X X^.: X 9 #.w.w.w.e.e.6.6.q.9.u.p.u.f.i.f.x.x.x.x.c.j.d 7 2X/.^.m 9X9X9X9X9X9X9X9X",
"9X9X9X9X9X9X<X X^.: . q #.5.5.=.=.e.8.6.7.6.r.e.t.e.t.a.t.u.u.u.f.y.p 3 2X/.!.m 9X9X9X9X9X9X9X9X",
"9X9X9X9X9X9X<X`.~.: . t @.5.$.e.*.*.6.6.6.6.r.6.7.q.t.u.u.u.q.p.u.a.p 4 1X/.^.m 9X9X9X9X9X9X9X9X",
"9X9X9X9X9X9X1X X^.: . e @.2.5.=.e.e.5.t.q.7.7.u.q.q.i.d.u.u.u.i.u.a.s 4 <X/.^.m 9X9X9X9X9X9X9X9X",
"9X9X9X9X9X9X<X|.E.: . e @.2.5.*.=.*.5.6.6.6.e.6.7.7.q.q.u.u.q.u.u.t.p 4 5X/.W.m 9X9X9X9X9X9X9X9X",
"9X9X9X9X9X9X1X`.^.: . t @.5.5.*.=.*.5.6.6.8.5.r.6.t.t.7.u.e.e.p.u.a.p 5 <X/.W.m 9X9X9X9X9X9X9X9X",
"9X9X9X9X9X9X1X.X~.: . t #.$.5.*.*.5.8.6.6.5.e.5.7.7.t.7.q.e.e.q.u.r.p 3 2X!.W.m 9X9X9X9X9X9X9X9X",
"9X9X9X9X9X9X5X`.E.: X t #.2.*.*.5.*.5.8.4.6.8.6.6.7.7.7.7.u.u.u.i.t.p 5 4X/.W.m 9X9X9X9X9X9X9X9X",
"9X9X9X9X9X9X5X`.E.: . t @.5.5.*.5.5.6.6.4.8.e.6.7.q.q.q.u.u.u.u.f.t.p 4 4X/.E.m 9X9X9X9X9X9X9X9X",
"9X9X9X9X9X9X5X|.].l X r #.$.w.2.r.s.8.a.a.a.r.r.s.j.j.l.h.k.k.j.k.j.h 5 8XR.^.< 9X9X9X9X9X9X9X9X",
"9X9X9X9X9X9X4X^.T.z X q #.w.w.2.2.3.8.6.r.r.s.l.s.s.a.l.l.d.d.k.j.s.a 3 :XR.R.< 9X9X9X9X9X9X9X9X",
"9X9X9X9X9X9X>X{.].l o t  .=.%.%.;.%.;.-.=.&.&.;.4.4.4.0.;.0.0.0.i.q.i u ;XE.R.< 9X9X9X9X9X9X9X9X",
"9X9X9X9X9X9X4X^.T.z o w $.%.:.%.%.;.-.>.%.;.;.;.;.;.:.;.;.:.>.z.0.9.i 8 3XQ.Q.N 9X9X9X9X9X9X9X9X",
"9X9X9X9X9X9X1X'.T.> K [.XX&X-X&X*X%X=X=X-X*XoX%X#X&X*X*X,X#X,X-X=X*X+XL <XE.Y.n 9X9X9X9X9X9X9X9X",
"9X9X9X9X9X9X1X_.E.C * J ] H.F.C.K.F.K.K.N.I.Y M.T F.K.K.K.R M.}.L.L.n.D <XT.R., 9X9X9X9X9X9X9X9X",
"9X9X9X9X9X9X1X(.~.C * F ] m.C.R S.G.M.S.` L.Y M.T C.H.C.G.Y m.}.J.K.R B 7XE.J., 9X9X9X9X9X9X9X9X",
"9X9X9X9X9X9X<X`.~.- & J ^ } | Q | B.} } ^ W.! } P } V.} D.! ) E.B.A.Q > 2X).~.Z 9X9X9X9X9X9X9X9X",
"9X9X9X9X9X9X5X(.T.< = H ' ' m.U m.S.m.N.U J.I [ P [ [ N.S.P ( Q.S.S.P > :X~.^.: 9X9X9X9X9X9X9X9X",
"9X9X9X9X9X9X:X^.Y.1 = H ( ' [ ~ ' M./ N.~ P.I | P | [ [ S.P ( D.] Z.Q > ;X~.~., 9X9X9X9X9X9X9X9X",
"9X9X9X9X9X9X<X(.R., = H ( / ' Q ) B.} } ~ U.W { L { _ _ B.L ( U.[ A.E 2 1XE.E.< 9X9X9X9X9X9X9X9X",
"9X9X9X9X9X9X<X`.Y.m & S ( _ _ Q _ | ^ { ~ D.Q { E { _ _ V.W ^ U.[ | L ; 3XQ.Q.< 9X9X9X9X9X9X9X9X",
"9X9X9X9X9X9X9X9X9X9X9X9X9X9X9X9X9X9X9X9X9X9X9X9X9X9X9X9X9X9X9X9X9X9X9X9X9X9X9X9X9X9X9X9X9X9X9X9X",
"9X9X9X9X9X9X9X9X9X9X9X9X9X9X9X9X9X9X9X9X9X9X9X9X9X9X9X9X9X9X9X9X9X9X9X9X9X9X9X9X9X9X9X9X9X9X9X9X"
};
