/* XPM */
static char *_967_929dacb96fc8b2e07ebb7898eda663cb44f514df2f55f485fcc7cdaf58bcc635[] = {
/* columns rows colors chars-per-pixel */
"48 48 243 2 ",
"   c black",
".  c #000100",
"X  c #000200",
"o  c #000201",
"O  c #000002",
"+  c #000102",
"@  c #010302",
"#  c #000203",
"$  c #020202",
"%  c gray1",
"&  c #040402",
"*  c #050503",
"=  c #000304",
"-  c #040404",
";  c gray2",
":  c #060604",
">  c #070705",
",  c #040406",
"<  c #050507",
"1  c #060606",
"2  c #070707",
"3  c #060807",
"4  c #080806",
"5  c #090907",
"6  c #070908",
"7  c #060A09",
"8  c #05090A",
"9  c #090909",
"0  c #0A0A08",
"q  c #0B0B09",
"w  c #08080A",
"e  c gray4",
"r  c #0C0C0A",
"t  c #0D0D0B",
"y  c #0B0F0E",
"u  c #0C0C0C",
"i  c gray5",
"p  c #0E0E0C",
"a  c #0F0F0D",
"s  c #11120D",
"d  c #10100E",
"f  c #111111",
"g  c #111310",
"h  c #121210",
"j  c #131311",
"k  c #131313",
"l  c #141510",
"z  c #141412",
"x  c #151513",
"c  c #161712",
"v  c #131716",
"b  c #161614",
"n  c #171715",
"m  c #171813",
"M  c #191A15",
"N  c #181A17",
"B  c #1A1B16",
"V  c #1B1C17",
"C  c #161A19",
"Z  c #1C1D18",
"A  c #1D1E19",
"S  c #1E1F19",
"D  c #1E1F1A",
"F  c #1F201B",
"G  c #1F211E",
"H  c #21221C",
"J  c #21221D",
"K  c #23241E",
"L  c #23241F",
"P  c #252620",
"I  c #272822",
"U  c #292A24",
"Y  c #2A2B25",
"T  c #2C2D27",
"R  c #2D2E28",
"E  c #2E2F29",
"W  c #2F3028",
"Q  c #2F302A",
"!  c #303129",
"~  c #31322A",
"^  c #33342C",
"/  c #34352D",
"(  c #34352F",
")  c #36372F",
"_  c #313536",
"`  c #373832",
"'  c #383931",
"]  c #393A32",
"[  c #3A3B33",
"{  c #3B3C34",
"}  c #3E3F37",
"|  c #343839",
" . c #343A38",
".. c #35393A",
"X. c #34383B",
"o. c #363A3B",
"O. c #363C3A",
"+. c #373D3B",
"@. c #35393C",
"#. c #373B3C",
"$. c #383C3D",
"%. c #383E3C",
"&. c #393F3D",
"*. c #393D3E",
"=. c #3A3E3F",
"-. c #3F4038",
";. c #3B413D",
":. c #3B413F",
">. c #3C423E",
",. c #3D433F",
"<. c #404139",
"1. c #41423A",
"2. c #42433B",
"3. c #44463B",
"4. c #46483D",
"5. c #484A3F",
"6. c #3B4043",
"7. c #3C4041",
"8. c #3C4240",
"9. c #3C4242",
"0. c #3D4343",
"q. c #3E4346",
"w. c #3E4444",
"e. c #3F4545",
"r. c #3E4649",
"t. c #404646",
"y. c #494B40",
"u. c #4A4C41",
"i. c #414649",
"p. c #43484B",
"a. c #787D81",
"s. c #7C8184",
"d. c #858A8D",
"f. c #868B8E",
"g. c #878C8F",
"h. c #848B91",
"j. c #878F91",
"k. c #858C92",
"l. c #868D93",
"z. c #878E94",
"x. c #888D90",
"c. c #898E91",
"v. c #8A8F92",
"b. c #888F95",
"n. c #889092",
"m. c #899193",
"M. c #8A9294",
"N. c #8B9395",
"B. c #899096",
"V. c #8A9197",
"C. c #8C9194",
"Z. c #8D9295",
"A. c #8C9496",
"S. c #8D9597",
"D. c #8F9497",
"F. c #8B9298",
"G. c #8C9399",
"H. c #8D9598",
"J. c #8D949A",
"K. c #8E959B",
"L. c #8F979A",
"P. c #8D949C",
"I. c #8F969C",
"U. c #909598",
"Y. c #919699",
"T. c #92979A",
"R. c #90949D",
"E. c #90979D",
"W. c #90979F",
"Q. c #90989B",
"!. c #93989B",
"~. c #949A98",
"^. c #91999C",
"/. c #93989C",
"(. c #929A9D",
"). c #92999F",
"_. c #94999C",
"`. c #94999D",
"'. c #959A9D",
"]. c #959A9E",
"[. c #969B9E",
"{. c #969B9F",
"}. c #979D9D",
"|. c #949C9F",
" X c #979C9F",
".X c #9198A0",
"XX c #939AA0",
"oX c #9299A3",
"OX c #939AA2",
"+X c #949BA1",
"@X c #969BA1",
"#X c #949BA3",
"$X c #959DA0",
"%X c #979CA0",
"&X c #979CA2",
"*X c #939AA4",
"=X c #949BA5",
"-X c #969AA5",
";X c #959CA6",
":X c #969DA7",
">X c #989DA1",
",X c #989DA3",
"<X c #999EA2",
"1X c #9A9FA2",
"2X c #989FA5",
"3X c #C2C6CF",
"4X c #C3C8CC",
"5X c #C3C7D0",
"6X c #C4C8D1",
"7X c #C5CAD0",
"8X c #C5C9D2",
"9X c #C4C8D3",
"0X c #C8CFD9",
"qX c #E3EBEE",
"wX c #E9EFEF",
"eX c #E2EBF2",
"rX c #E5EDF0",
"tX c #E6EEF1",
"yX c #E6EDF3",
"uX c #E7EFF2",
"iX c #E5EEF5",
"pX c #E7EEF4",
"aX c #E6EFF4",
"sX c #E6EDF7",
"dX c #E6EFF6",
"fX c #E8EFF5",
"gX c #EAEFF5",
"hX c #E9EFFB",
"jX c #E7F0F5",
"kX c #E7F0F7",
"lX c #E9F0F6",
"zX c #E8F1F6",
"xX c #EAF1F7",
"cX c #E9F2F7",
"vX c #E9F2F9",
"bX c #EBF2F8",
"nX c #E9F0FA",
"mX c #EAF1FB",
"MX c #EBF1FD",
"NX c #EDF1FD",
"BX c #ECF3FD",
"VX c #F0F5F8",
"CX c None",
/* pixels */
"CXCXCXCXCXCXCXCXCXCXCXCXCXCXCXCXCXCXCXCXCXCXCXCXCXCXCXCXCXCXCXCXCXCXCXCXCXCXCXCXCXCXCXCXCXCXCXCX",
"CXCXCXCXCXCXCXCXCXCXCXCXCXCXCXCXCXCXCXCXCXCXCXCXCXCXCXCXCXCXCXCXCXCXCXCXCXCXCXCXCXCXCXCXCXCXCXCX",
"CXCXCXCXCXCXa.<X>X/.`.{.{.@X@X@X@X@X@X@X{.{.{.{.{.{.{.{.{.{.{.{.{.{.{.{.`.`. Xs.CXCXCXCXCXCXCXCX",
"CXCXCXCXCXCXR.8X5X6X6X5X9X9X9X9X9X9X9X9X9X9X9X9X9X9X9X9X9X9X9X9X9X9X9X9X7X4X4X[.CXCXCXCXCXCXCXCX",
"CXCXCXCXCXCX0XsXnXBXMXhXMXMXMXMXMXMXMXMXNXNXNXNXNXNXNXNXNXNXNXNXNXNXNXNXbXxXuX^.CXCXCXCXCXCXCXCX",
"CXCXCXCXCXCXmX:X*XoX;X;X=X=X=X=X=X=X=X=X-X-X-X-X-X-X-X-X-X-X-X-X-X-X-X-XP.2X$Xr.CXCXCXCXCXCXCXCX",
"CXCXCXCXCXCXVX!.1X6.i.i.t.t.t.t.t.t.t.t.t.t.t.t.t.t.t.t.t.t.t.t.t.t.t.t.3X,X>Xp.CXCXCXCXCXCXCXCX",
"CXCXCXCXCXCXwX}.~.8.X X X X X X X X X X . . . . . . . . . . . . . . . . gX&X].q.CXCXCXCXCXCXCXCX",
"CXCXCXCXCXCXlX{.'.=.. o     O O O                                       cX#X+Xt.CXCXCXCXCXCXCXCX",
"CXCXCXCXCXCXlX{.'.=.. .     O O O                                       cX#X+Xt.CXCXCXCXCXCXCXCX",
"CXCXCXCXCXCXlX{.'.=.. .     O O O                                       cX#X+Xt.CXCXCXCXCXCXCXCX",
"CXCXCXCXCXCXlX{._.*.. .     O O O                                       cX#X+Xt.CXCXCXCXCXCXCXCX",
"CXCXCXCXCXCXlX]._.*.. .     O O O                                       cX#X+Xt.CXCXCXCXCXCXCXCX",
"CXCXCXCXCXCXlX]._.*.. .     O O O                                       cX#X+Xt.CXCXCXCXCXCXCXCX",
"CXCXCXCXCXCXfX%X!.$.. .     O O O                                       zXOXXXe.CXCXCXCXCXCXCXCX",
"CXCXCXCXCXCXfX{.!.$.. .     O O O                                       zXOXXXe.CXCXCXCXCXCXCXCX",
"CXCXCXCXCXCXfX{.T.#.. .     O O O                                       zXOXXXt.CXCXCXCXCXCXCXCX",
"CXCXCXCXCXCXfX{.Y.#.. .     O O O                                       zXOX).t.CXCXCXCXCXCXCXCX",
"CXCXCXCXCXCXfX{.U.... o     O O O                                       zX.XE.w.CXCXCXCXCXCXCXCX",
"CXCXCXCXCXCXfX{.D.... o     O O O                                       zXW.K.0.CXCXCXCXCXCXCXCX",
"CXCXCXCXCXCXfX].D.... o     O O O                                       zXW.K.9.CXCXCXCXCXCXCXCX",
"CXCXCXCXCXCXyX{.Z.o.. .     O O O     .                                 zXI.S.,.CXCXCXCXCXCXCXCX",
"CXCXCXCXCXCXyX{.Z.... .     O O O     .                                 zXK.A.,.CXCXCXCXCXCXCXCX",
"CXCXCXCXCXCXyX{.Z.... .     O O O     .                                 zXK.A.,.CXCXCXCXCXCXCXCX",
"CXCXCXCXCXCXyX{.C.... .     O O O     .                                 jXJ.N.,.CXCXCXCXCXCXCXCX",
"CXCXCXCXCXCXyX{.C.... .     O O O     .                                 jXJ.N.>.CXCXCXCXCXCXCXCX",
"CXCXCXCXCXCXyX{.C.... .     O O O     .                                 jXG.M.>.CXCXCXCXCXCXCXCX",
"CXCXCXCXCXCXpX].v.... .     O O O     .                                 jXG.M.>.CXCXCXCXCXCXCXCX",
"CXCXCXCXCXCXpX].v.... .     O O O     .                                 jXG.M.>.CXCXCXCXCXCXCXCX",
"CXCXCXCXCXCXpX].v.... .     O O O     .                                 jXF.m.>.CXCXCXCXCXCXCXCX",
"CXCXCXCXCXCXpX].v.... .     O O O     .                                 aXF.n.;.CXCXCXCXCXCXCXCX",
"CXCXCXCXCXCXpX].v.... .     O O O     .                                 aXV.n.;.CXCXCXCXCXCXCXCX",
"CXCXCXCXCXCXpX].v.| . .     O O O     .                                 aXV.n.;.CXCXCXCXCXCXCXCX",
"CXCXCXCXCXCXpX].v.| . .     O O O     .                                 aXB.j.;.CXCXCXCXCXCXCXCX",
"CXCXCXCXCXCXtX(.c.X.+ .                                                 jXz.v.%.CXCXCXCXCXCXCXCX",
"CXCXCXCXCXCXtX(.c.X.+ .                                                 jXz.v.%.CXCXCXCXCXCXCXCX",
"CXCXCXCXCXCXtX^.x.X.+ O               O                                 jXz.c.%.CXCXCXCXCXCXCXCX",
"CXCXCXCXCXCXtX^.x.X.+ O             O O                                 kXl.c.%.CXCXCXCXCXCXCXCX",
"CXCXCXCXCXCXtX^.c.@.= o $ $ $ % % , , < * * : : > 4 4 4 5 5 5 5 0 0 0 0 kXl.c.%.CXCXCXCXCXCXCXCX",
"CXCXCXCXCXCXtX^.c...= o % % - ; 1 2 w w 5 0 0 q r t p p a a a a d d d d dXl.c.%.CXCXCXCXCXCXCXCX",
"CXCXCXCXCXCXrX|.g.#.# @ & * > 4 9 e u i p a d h j z x b b b b b n n n n vXk.g.&.CXCXCXCXCXCXCXCX",
"CXCXCXCXCXCXqXQ.x.| 8 3 4 5 q t p a f k c m M B V Z D F D D F F F F F F dXb.g.:.CXCXCXCXCXCXCXCX",
"CXCXCXCXCXCXtX^.d.7.7 6 s l m M V D J L P I U T R E Q Q Q Q Q Q Q Q Q Q iXB.Z. .CXCXCXCXCXCXCXCX",
"CXCXCXCXCXCXrXL.f.o.y g m B S H K I Y R ! ~ / ) ' ' ] ] ] ] ] ] ] ] ] ] eXV.x.+.CXCXCXCXCXCXCXCX",
"CXCXCXCXCXCXtX^.Z._ v N A H P U T Q ( ` [ { } <.1.1.1.1.1.1.1.1.1.1.1.1.dXh.c.O.CXCXCXCXCXCXCXCX",
"CXCXCXCXCXCXrXH.f.*.C G I Y W ^ ) [ -.2.3.4.5.y.y.u.u.u.u.u.u.u.u.u.u.u.vXl.v.%.CXCXCXCXCXCXCXCX",
"CXCXCXCXCXCXCXCXCXCXCXCXCXCXCXCXCXCXCXCXCXCXCXCXCXCXCXCXCXCXCXCXCXCXCXCXCXCXCXCXCXCXCXCXCXCXCXCX",
"CXCXCXCXCXCXCXCXCXCXCXCXCXCXCXCXCXCXCXCXCXCXCXCXCXCXCXCXCXCXCXCXCXCXCXCXCXCXCXCXCXCXCXCXCXCXCXCX"
};
