/* XPM */
static char *_0068_08e1905704a610796a0c5889f98ada99c650a98ce2ae64fe5dcf51c9e6d9166c[] = {
/* columns rows colors chars-per-pixel */
"48 48 5 1 ",
"  c black",
". c #FF7F27",
"X c #FFC90E",
"o c white",
"O c None",
/* pixels */
"OOOOOOOOOOOOOOOOOOOOOOOOOOOOOOOOOOOOOOOOOOOOOOOO",
"OOOOOOOOOOOOOOOOOOOOOOOOOOOOOOOOOOOOOOOOOOOOOOOO",
"OOOOOOOOOOOOOOOOOOOOOOOOOOOOOOOOOOOOOOOOOOOOOOOO",
"OOOOOOOOOOOOOOOOOOOOOOOOOOOOOOOOOOOOOOOOOOOOOOOO",
"OOOOOOOOOOOOOOOOOOOOOOOOOOOOOOOOOOOOOOOOOOOOOOOO",
"OOOOOOOOOOOOOOOOOOOOOOOOOOOOOOOOOOOOOOOOOOOOOOOO",
"OOOOOOOOOOOOOOOOOOOOOOOOOOOOOOOOOOOOOOOOOOOOOOOO",
"OOOOOOOOOOOOOOOOOOOOOOOOOOOOOOOOOOOOOOOOOOOOOOOO",
"OOOOOOOOOOOOOOOOOOO          OOOOOOOOOOOOOOOOOOO",
"OOOOOOOOOOOOOOOOO  XXXXXXXXoo  OOOOOOOOOOOOOOOOO",
"OOOOOOOOOOOOOOOO XXXXXXXXXXXooo OOOOOOOOOOOOOOOO",
"OOOOOOOOOOOOOOO XXXXXXXXXXXXXXoo OOOOOOOOOOOOOOO",
"OOOOOOOOOOOOOO XXXXXXXXXXXXXXXXXo OOOOOOOOOOOOOO",
"OOOOOOOOOOOOOO XXXXXXXXXX...XXXXX OOOOOOOOOOOOOO",
"OOOOOOOOOOOOOOO XXo oXXX.oo..XXXX OOOOOOOOOOOOOO",
"OOOOOOOOOOOOOOO XX  oXXX.Xo..XXXX OOOOOOOOOOOOOO",
"OOOOOOOOOOOOOO XXX  oXXXXX..XXXX. OOOOOOOOOOOOOO",
"OOOOOOOOOOOOO ..XXXXXXXXX..XXXX.. OOOOOOOOOOOOOO",
"OOOOOOOOOOOOOO ..XXXXXXX.XXXXX... OOOOOOOOOOOOOO",
"OOOOOOOOOOOOOOO ..  XXXXXXXXX... OOOOOOOOOOOOOOO",
"OOOOOOOOOOOOOOOO   ...XXXX...  OOOOOOOOOOOOOOOOO",
"OOOOOOOOOOOOOOOOOOO   .XX.   OOOOOOOOOOOOOOOOOOO",
"OOOOOOOOOOOOOOOOOOOOOO X. OOOOOOOOOOOOOOOOOOOOOO",
"OOOOOOOOOOOOOOOOOOOOO XXX.   OOOOOOOOOOOOOOOOOOO",
"OOOOOOOOOOOOOOOOOOO XXXXXXXXXX OOOOOOOOOOOOOOOOO",
"OOOOOOOOOOOOOOOOOOO XXXXXX .XX OOOOOOOOOOOOOOOOO",
"OOOOOOOOOOOOOOOOOO XXXXXX. .XXX OOOOOOOOOOOOOOOO",
"OOOOOOOOOOOOOOOOOO XXXXXX. .XXX OOOOOOOOOOOOOOOO",
"OOOOOOOOOOOOOOOOOO XXXXXX.. .XX OOOOOOOOOOOOOOOO",
"OOOOOOOOOOOOOOOOOO XXXXXXX. .XXX OOOOOOOOOOOOOOO",
"OOOOOOOOOOOOOOOOOO XXXXXXX. ..XX OOOOOOOOOOOOOOO",
"OOOOOOOOOOOOOOOOOO X .XXXX.. .XX OOOOOOOOOOOOOOO",
"OOOOOOOOOOOOOOOOO XXXXXXXXX. ..XX OOOOOOOOOOOOOO",
"OOOOOOOOOOOOOOOOO XXXXXXXXXX. .XX OOOOOOOOOOOOOO",
"OOOOOOOOOOOOOOOOO XXXX.  .XXX ..X OOOOOOOOOOOOOO",
"OOOOOOOOOOOOOOOOO XXXX OO XXXX   OOOOOOOOOOOOOOO",
"OOOOOOOOOOOOOOOOO XXX. OO .XXX OOOOOOOOOOOOOOOOO",
"OOOOOOOOOOOOOOOOO XXX. OO .XXX OOOOOOOOOOOOOOOOO",
"OOOOOOOOOOOOOOOOO XXX OOOO XXX OOOOOOOOOOOOOOOOO",
"OOOOOOOOOOOOOOOOO XXX OOOO XXX OOOOOOOOOOOOOOOOO",
"OOOOOOOOOOOOOOOOO .XX OOOO .XX OOOOOOOOOOOOOOOOO",
"OOOOOOOOOOOOOOOOO .XX OOOO .XX OOOOOOOOOOOOOOOOO",
"OOOOOOOOOOOOOOOOO ..X OOOO ..X OOOOOOOOOOOOOOOOO",
"OOOOOOOOOOOOOOOOO ... OOOO ... OOOOOOOOOOOOOOOOO",
"OOOOOOOOOOOOOOOOO     OOOO     OOOOOOOOOOOOOOOOO",
"OOOOOOOOOOOOOOOOOOOOOOOOOOOOOOOOOOOOOOOOOOOOOOOO",
"OOOOOOOOOOOOOOOOOOOOOOOOOOOOOOOOOOOOOOOOOOOOOOOO",
"OOOOOOOOOOOOOOOOOOOOOOOOOOOOOOOOOOOOOOOOOOOOOOOO"
};
