/* XPM */
static char *_165_75e269d0eba9bb63280f9c3ed596b5383a074a1cd5df68139b3f19065a2b160c[] = {
/* columns rows colors chars-per-pixel */
"48 48 2 1 ",
"  c gray11",
". c #E4E4E4",
/* pixels */
"                                                ",
"                                                ",
"                                                ",
"      ....................................      ",
"      ....................................      ",
"      ....................................      ",
"   ...   ..............................         ",
"   ...   ..............................         ",
"   ...   ..............................         ",
"   ......                        ...            ",
"   ......                        ...            ",
"   ......                        ...            ",
"   ......   ........................            ",
"   ......   ........................            ",
"   ......   ........................            ",
"   ......   ...               ......            ",
"   ......   ...               ......            ",
"   ......   ...               ......            ",
"   ......   ...               ......            ",
"   ......   ...               ......            ",
"   ......   ...               ......            ",
"   ......   ...      ......   ......            ",
"   ......   ...      ......   ......            ",
"   ......   ...      ......   ......            ",
"   ......   ...      ......   ......            ",
"   ......   ...      ......   ......            ",
"   ......   ...      ......   ......            ",
"   ......   ...               ......            ",
"   ......   ...               ......            ",
"   ......   ...               ......            ",
"   ......   ........................            ",
"   ......   ........................            ",
"   ......   ........................            ",
"   .................................            ",
"   .................................            ",
"   .................................            ",
"   ......                           ...         ",
"   ......                           ...         ",
"   ......                           ...         ",
"   ...                                 ...      ",
"   ...                                 ...      ",
"   ...                                 ...      ",
"                                                ",
"                                                ",
"                                                ",
"                                                ",
"                                                ",
"                                                "
};
