/* XPM */
static char *_426_d9feef680f1415b5e666f151089ebb5d2af952ee66f780a647fb3a832087159f[] = {
/* columns rows colors chars-per-pixel */
"48 48 5 1 ",
"  c black",
". c #FF7F27",
"X c #FFC90E",
"o c white",
"O c None",
/* pixels */
"OOOOOOOOOOOOOOOOOOOOOOOOOOOOOOOOOOOOOOOOOOOOOOOO",
"OOOOOOOOOOOOOOOOOOOOOOOOOOOOOOOOOOOOOOOOOOOOOOOO",
"OOOOOOOOOOOOOOOOOOOOOOOOOOOOOOOOOOOOOOOOOOOOOOOO",
"OOOOOOOOOOOOOOOOOOOOOOOOOOOOOOOOOOOOOOOOOOOOOOOO",
"OOOOOOOOOOOOOOOOOOOOOOOOOOOOOOOOOOOOOOOOOOOOOOOO",
"OOOOOOOOOOOOOOOOOOOOOOOOOOOOOOOOOOOOOOOOOOOOOOOO",
"OOOOOOOOOOOOOOOOOOOOOOOOOOOOOOOOOOOOOOOOOOOOOOOO",
"OOOOOOOOOOOOOOOOOOOOOOOOOOOOOOOOOOOOOOOOOOOOOOOO",
"OOOOOOOOOOOOOOOOOO          OOOOOOOOOOOOOOOOOOOO",
"OOOOOOOOOOOOOOOO  ooXXXXXXXX  OOOOOOOOOOOOOOOOOO",
"OOOOOOOOOOOOOOO oooXXXXXXXXXXX OOOOOOOOOOOOOOOOO",
"OOOOOOOOOOOOOO ooXXXXXXXXXXXXXX OOOOOOOOOOOOOOOO",
"OOOOOOOOOOOOO oXXXXXXXXXXXXXXXXX OOOOOOOOOOOOOOO",
"OOOOOOOOOOOOO XXXXX...XXXXXXXXXX OOOOOOOOOOOOOOO",
"OOOOOOOOOOOOO XXXX..oo.XXXo oXX OOOOOOOOOOOOOOOO",
"OOOOOOOOOOOOO XXXX..oX.XXXo  XX OOOOOOOOOOOOOOOO",
"OOOOOOOOOOOOO .XXXX..XXXXXo  XXX OOOOOOOOOOOOOOO",
"OOOOOOOOOOOOO ..XXXX..XXXXXXXXX.. OOOOOOOOOOOOOO",
"OOOOOOOOOOOOO ...XXXXX.XXXXXXX.. OOOOOOOOOOOOOOO",
"OOOOOOOOOOOOOO ....XXXXXXXX  .. OOOOOOOOOOOOOOOO",
"OOOOOOOOOOOOOOO   ...XXXX...   OOOOOOOOOOOOOOOOO",
"OOOOOOOOOOOOOOOOOO   .XX.   OOOOOOOOOOOOOOOOOOOO",
"OOOOOOOOOOOOOOOOOOOOO .X OOOOOOOOOOOOOOOOOOOOOOO",
"OOOOOOOOOOOOOOOOOO   .XXX OOOOOOOOOOOOOOOOOOOOOO",
"OOOOOOOOOOOOOOOO XXXXXXXXXX OOOOOOOOOOOOOOOOOOOO",
"OOOOOOOOOOOOOOOO XX. XXXXXX OOOOOOOOOOOOOOOOOOOO",
"OOOOOOOOOOOOOOO XXX. .XXXXXX OOOOOOOOOOOOOOOOOOO",
"OOOOOOOOOOOOOOO XXX. .XXXXXX OOOOOOOOOOOOOOOOOOO",
"OOOOOOOOOOOOOOO XX. ..XXXXXX OOOOOOOOOOOOOOOOOOO",
"OOOOOOOOOOOOOO XXX. .XXXXXXX OOOOOOOOOOOOOOOOOOO",
"OOOOOOOOOOOOOO XX.. .XXXXXXX OOOOOOOOOOOOOOOOOOO",
"OOOOOOOOOOOOOO XX. ..XXXX. X OOOOOOOOOOOOOOOOOOO",
"OOOOOOOOOOOOO XX.. .XXXXXXXXX OOOOOOOOOOOOOOOOOO",
"OOOOOOOOOOOOO XX. .XXXXXXXXXX OOOOOOOOOOOOOOOOOO",
"OOOOOOOOOOOOO X.. XXX.  .XXXX OOOOOOOOOOOOOOOOOO",
"OOOOOOOOOOOOOO   XXXX OO XXXX OOOOOOOOOOOOOOOOOO",
"OOOOOOOOOOOOOOOO XXX. OO .XXX OOOOOOOOOOOOOOOOOO",
"OOOOOOOOOOOOOOOO XXX. OO .XXX OOOOOOOOOOOOOOOOOO",
"OOOOOOOOOOOOOOOO XXX OOOO XXX OOOOOOOOOOOOOOOOOO",
"OOOOOOOOOOOOOOOO XXX OOOO XXX OOOOOOOOOOOOOOOOOO",
"OOOOOOOOOOOOOOOO XX. OOOO XX. OOOOOOOOOOOOOOOOOO",
"OOOOOOOOOOOOOOOO XX. OOOO XX. OOOOOOOOOOOOOOOOOO",
"OOOOOOOOOOOOOOOO X.. OOOO X.. OOOOOOOOOOOOOOOOOO",
"OOOOOOOOOOOOOOOO ... OOOO ... OOOOOOOOOOOOOOOOOO",
"OOOOOOOOOOOOOOOO     OOOO     OOOOOOOOOOOOOOOOOO",
"OOOOOOOOOOOOOOOOOOOOOOOOOOOOOOOOOOOOOOOOOOOOOOOO",
"OOOOOOOOOOOOOOOOOOOOOOOOOOOOOOOOOOOOOOOOOOOOOOOO",
"OOOOOOOOOOOOOOOOOOOOOOOOOOOOOOOOOOOOOOOOOOOOOOOO"
};
