/* XPM */
static char *_0573_83341b815ea1ca3ce5a020bd91120385f674a8cab2a56d653faae97750e66f44[] = {
/* columns rows colors chars-per-pixel */
"48 48 8 1 ",
"  c #14182E",
". c #52333F",
"X c #8F4D57",
"o c #BD6A62",
"O c #FFAE70",
"+ c #A3A7C2",
"@ c #DFE0E8",
"# c None",
/* pixels */
"##################            ##################",
"##################            ##################",
"##################            ##################",
"###                  XXXXXX                  ###",
"###                  XXXXXX                  ###",
"###                  XXXXXX                  ###",
"   OOOOOOOOOOOOOOOOOOOOOOOOOOOOOOOOOOOOOOOOOO   ",
"   OOOOOOOOOOOOOOOOOOOOOOOOOOOOOOOOOOOOOOOOOO   ",
"   OOOOOOOOOOOOOOOOOOOOOOOOOOOOOOOOOOOOOOOOOO   ",
"   oooooooooooooooooooooooooooooooooooooooooo   ",
"   oooooooooooooooooooooooooooooooooooooooooo   ",
"   oooooooooooooooooooooooooooooooooooooooooo   ",
"   oooXXXXXXXXXXXXXXXXXXXXXXXXXXXXXXXXXXXXooo   ",
"   oooXXXXXXXXXXXXXXXXXXXXXXXXXXXXXXXXXXXXooo   ",
"   oooXXXXXXXXXXXXXXXXXXXXXXXXXXXXXXXXXXXXooo   ",
"   oooXXXXXXXXXXXXXXXXXXXXXXXXXXXXXXXXXXXXooo   ",
"   oooXXXXXXXXXXXXXXXXXXXXXXXXXXXXXXXXXXXXooo   ",
"   oooXXXXXXXXXXXXXXXXXXXXXXXXXXXXXXXXXXXXooo   ",
"   oooXXXXXXXXXXXXXXXXXXXXXXXXXXXXXXXXXXXXooo   ",
"   oooXXXXXXXXXXXXXXXXXXXXXXXXXXXXXXXXXXXXooo   ",
"   oooXXXXXXXXXXXXXXXXXXXXXXXXXXXXXXXXXXXXooo   ",
"   oooXXXXXXXXXXXXXXXXXXXXXXXXXXXXXXXXXXXXooo   ",
"   oooXXXXXXXXXXXXXXXXXXXXXXXXXXXXXXXXXXXXooo   ",
"   oooXXXXXXXXXXXXXXXXXXXXXXXXXXXXXXXXXXXXooo   ",
"   oooXXXXXXXXXXXXXXXXXXXXXXXXXXXXXXXXXXXXooo   ",
"   oooXXXXXXXXXXXXXXXXXXXXXXXXXXXXXXXXXXXXooo   ",
"   oooXXXXXXXXXXXXXXXXXXXXXXXXXXXXXXXXXXXXooo   ",
"   oooXXXXXXXXXXXXXXXXXXXXXXXXXXXXXXXXXXXXooo   ",
"   oooXXXXXXXXXXXXXXXXXXXXXXXXXXXXXXXXXXXXooo   ",
"   oooXXXXXXXXXXXXXXXXXXXXXXXXXXXXXXXXXXXXooo   ",
"   oooooooooooooooooooooooooooooooooooooooooo   ",
"   oooooooooooooooooooooooooooooooooooooooooo   ",
"   oooooooooooooooooooooooooooooooooooooooooo   ",
"###                  ......                  ###",
"###                  ......                  ###",
"###                  ......                  ###",
"##################   XXXXXX   ##################",
"##################   XXXXXX   ##################",
"##################   XXXXXX   ##################",
"###############   +++XXXXXX+++   ###############",
"###############   +++XXXXXX+++   ###############",
"###############   +++XXXXXX+++   ###############",
"###############   @@@@@@@@@@@@   ###############",
"###############   @@@@@@@@@@@@   ###############",
"###############   @@@@@@@@@@@@   ###############",
"###############   ++++++++++++   ###############",
"###############   ++++++++++++   ###############",
"###############   ++++++++++++   ###############"
};
