/* XPM */
static char *_671_db328027ce6e1803c2d5c63d3c7af9c21511f9faaec5cdf308da5557460e29df[] = {
/* columns rows colors chars-per-pixel */
"48 48 5 1 ",
"  c black",
". c #FF7F27",
"X c #FFC90E",
"o c white",
"O c None",
/* pixels */
"OOOOOOOOOOOOOOOOOOOOOOOOOOOOOOOOOOOOOOOOOOOOOOOO",
"OOOOOOOOOOOOOOOOOOOOOOOOOOOOOOOOOOOOOOOOOOOOOOOO",
"OOOOOOOOOOOOOOOOOOOOOOOOOOOOOOOOOOOOOOOOOOOOOOOO",
"OOOOOOOOOOOOOOOOOOOOOOOOOOOOOOOOOOOOOOOOOOOOOOOO",
"OOOOOOOOOOOOOOOOOOOOOOOOOOOOOOOOOOOOOOOOOOOOOOOO",
"OOOOOOOOOOOOOOOOOOOOOOOOOOOOOOOOOOOOOOOOOOOOOOOO",
"OOOOOOOOOOOOOOOOOOOOOOOOOOOOOOOOOOOOOOOOOOOOOOOO",
"OOOOOOOOOOOOOOOOOOOOOOOOOOOOOOOOOOOOOOOOOOOOOOOO",
"OOOOOOOOOOOOOOOOOOO          OOOOOOOOOOOOOOOOOOO",
"OOOOOOOOOOOOOOOOO  XXXXXXXXoo  OOOOOOOOOOOOOOOOO",
"OOOOOOOOOOOOOOOO XXXXXXXXXXXooo OOOOOOOOOOOOOOOO",
"OOOOOOOOOOOOOOO XXXXXXXXXXXXXXoo OOOOOOOOOOOOOOO",
"OOOOOOOOOOOOOO XXXXXXXXXXXXXXXXXo OOOOOOOOOOOOOO",
"OOOOOOOOOOOOOO XXXXXXXXXXXXXXXXXX OOOOOOOOOOOOOO",
"OOOOOOOOOOOOOO ..XXXXXXXXXXXXXX.. OOOOOOOOOOOOOO",
"OOOOOOOOOOOOOO X.XXXXXXXXXXXXXX.X OOOOOOOOOOOOOO",
"OOOOOOOOOOOOOO .XXXXXXXXXXXXXXXXX OOOOOOOOOOOOOO",
"OOOOOOOOOOOOOO .XXXXXXXXXXXXXXXXX OOOOOOOOOOOOOO",
"OOOOOOOOOOOOOO ..XXXXXXXXXXXXXXXX OOOOOOOOOOOOOO",
"OOOOOOOOOOOOOOO ..XXXXXXXXXXXXXX OOOOOOOOOOOOOOO",
"OOOOOOOOOOOOOOOOO  ...XXXXXXX  OOOOOOOOOOOOOOOOO",
"OOOOOOOOOOOOOOOOOOO   .XXX   OOOOOOOOOOOOOOOOOOO",
"OOOOOOOOOOOOOOOOOOOOOO .X OOOOOOOOOOOOOOOOOOOOOO",
"OOOOOOOOOOOOOOOOOOO   .XXX   OOOOOOOOOOOOOOOOOOO",
"OOOOOOOOOOOOOOOOO X.XXXX XXX.X OOOOOOOOOOOOOOOOO",
"OOOOOOOOOOOOOOOO X. XXX. XXX .X OOOOOOOOOOOOOOOO",
"OOOOOOOOOOOOOOOO X. XXX. XXX .X OOOOOOOOOOOOOOOO",
"OOOOOOOOOOOOOOO XX. XXX. XXX .XX OOOOOOOOOOOOOOO",
"OOOOOOOOOOOOOOO X. XXXX. XXXX .X OOOOOOOOOOOOOOO",
"OOOOOOOOOOOOOOO X. XXXX. XXXX .X OOOOOOOOOOOOOOO",
"OOOOOOOOOOOOOO XX. XXXX. XXXX .XX OOOOOOOOOOOOOO",
"OOOOOOOOOOOOOO X.. XXXXX XXXX ..X OOOOOOOOOOOOOO",
"OOOOOOOOOOOOOO X. XXXXXXXXXXXX .X OOOOOOOOOOOOOO",
"OOOOOOOOOOOOO XX. XXXXX..XXXXX .XX OOOOOOOOOOOOO",
"OOOOOOOOOOOOO X.. XXXX.  .XXXX ..X OOOOOOOOOOOOO",
"OOOOOOOOOOOOO     XXXX OO XXXX     OOOOOOOOOOOOO",
"OOOOOOOOOOOOOOOOO XXX. OO .XXX OOOOOOOOOOOOOOOOO",
"OOOOOOOOOOOOOOOOO XXX. OO .XXX OOOOOOOOOOOOOOOOO",
"OOOOOOOOOOOOOOOOO XXX OOOO XXX OOOOOOOOOOOOOOOOO",
"OOOOOOOOOOOOOOOOO XXX OOOO XXX OOOOOOOOOOOOOOOOO",
"OOOOOOOOOOOOOOOOO .XX OOOO .XX OOOOOOOOOOOOOOOOO",
"OOOOOOOOOOOOOOOOO .XX OOOO .XX OOOOOOOOOOOOOOOOO",
"OOOOOOOOOOOOOOOOO ..X OOOO ..X OOOOOOOOOOOOOOOOO",
"OOOOOOOOOOOOOOOOO ... OOOO ... OOOOOOOOOOOOOOOOO",
"OOOOOOOOOOOOOOOOO     OOOO     OOOOOOOOOOOOOOOOO",
"OOOOOOOOOOOOOOOOOOOOOOOOOOOOOOOOOOOOOOOOOOOOOOOO",
"OOOOOOOOOOOOOOOOOOOOOOOOOOOOOOOOOOOOOOOOOOOOOOOO",
"OOOOOOOOOOOOOOOOOOOOOOOOOOOOOOOOOOOOOOOOOOOOOOOO"
};
